<mxfile host="app.diagrams.net" modified="2021-09-07T13:40:33.360Z" agent="5.0 (X11; CrOS x86_64 13982.88.0) AppleWebKit/537.36 (KHTML, like Gecko) Chrome/92.0.4515.162 Safari/537.36" etag="b3t8eUqcxiqikBPwg5IC" version="15.1.0" type="github">
  <diagram id="3ws7TwF3U3amYZibEbVT" name="Page-1">
    <mxGraphModel dx="1170" dy="843" grid="1" gridSize="10" guides="1" tooltips="1" connect="1" arrows="1" fold="1" page="1" pageScale="1" pageWidth="827" pageHeight="1169" math="0" shadow="0">
      <root>
        <mxCell id="0" />
        <mxCell id="1" parent="0" />
        <mxCell id="si4J1eO5tpDbfRMuDnGj-1" value="Sourcing" style="rounded=0;whiteSpace=wrap;html=1;" vertex="1" parent="1">
          <mxGeometry x="120" y="160" width="80" height="40" as="geometry" />
        </mxCell>
        <mxCell id="si4J1eO5tpDbfRMuDnGj-2" value="Fabric Vendors" style="shape=parallelogram;perimeter=parallelogramPerimeter;whiteSpace=wrap;html=1;fixedSize=1;" vertex="1" parent="1">
          <mxGeometry x="20" y="70" width="110" height="50" as="geometry" />
        </mxCell>
        <mxCell id="si4J1eO5tpDbfRMuDnGj-4" value="Accessories&lt;br&gt;Vendors" style="shape=parallelogram;perimeter=parallelogramPerimeter;whiteSpace=wrap;html=1;fixedSize=1;" vertex="1" parent="1">
          <mxGeometry x="180" y="70" width="110" height="50" as="geometry" />
        </mxCell>
        <mxCell id="si4J1eO5tpDbfRMuDnGj-7" value="" style="endArrow=classic;startArrow=classic;html=1;entryX=0.5;entryY=1;entryDx=0;entryDy=0;exitX=0.5;exitY=0;exitDx=0;exitDy=0;" edge="1" parent="1" source="si4J1eO5tpDbfRMuDnGj-1" target="si4J1eO5tpDbfRMuDnGj-4">
          <mxGeometry width="50" height="50" relative="1" as="geometry">
            <mxPoint x="180" y="160" as="sourcePoint" />
            <mxPoint x="240" y="130" as="targetPoint" />
          </mxGeometry>
        </mxCell>
        <mxCell id="si4J1eO5tpDbfRMuDnGj-8" value="PHF sends PO. Vendors send material" style="text;html=1;strokeColor=none;fillColor=none;align=center;verticalAlign=middle;whiteSpace=wrap;rounded=0;" vertex="1" parent="1">
          <mxGeometry x="100" y="40" width="120" height="20" as="geometry" />
        </mxCell>
        <mxCell id="si4J1eO5tpDbfRMuDnGj-9" value="" style="endArrow=classic;startArrow=classic;html=1;exitX=0.5;exitY=0;exitDx=0;exitDy=0;entryX=0.5;entryY=1;entryDx=0;entryDy=0;" edge="1" parent="1" source="si4J1eO5tpDbfRMuDnGj-1" target="si4J1eO5tpDbfRMuDnGj-2">
          <mxGeometry width="50" height="50" relative="1" as="geometry">
            <mxPoint x="10" y="160" as="sourcePoint" />
            <mxPoint x="70" y="130" as="targetPoint" />
          </mxGeometry>
        </mxCell>
        <mxCell id="si4J1eO5tpDbfRMuDnGj-10" value="Warehouse" style="shape=internalStorage;whiteSpace=wrap;html=1;backgroundOutline=1;" vertex="1" parent="1">
          <mxGeometry x="100" y="240" width="120" height="80" as="geometry" />
        </mxCell>
        <mxCell id="si4J1eO5tpDbfRMuDnGj-11" value="" style="endArrow=classic;html=1;exitX=0.5;exitY=1;exitDx=0;exitDy=0;entryX=0.5;entryY=0;entryDx=0;entryDy=0;" edge="1" parent="1" source="si4J1eO5tpDbfRMuDnGj-1" target="si4J1eO5tpDbfRMuDnGj-10">
          <mxGeometry width="50" height="50" relative="1" as="geometry">
            <mxPoint x="190" y="230" as="sourcePoint" />
            <mxPoint x="240" y="180" as="targetPoint" />
          </mxGeometry>
        </mxCell>
        <mxCell id="si4J1eO5tpDbfRMuDnGj-12" value="&lt;h1&gt;&lt;span style=&quot;font-size: 12px ; font-weight: 400&quot;&gt;Inbound Details&lt;/span&gt;&lt;/h1&gt;&lt;div&gt;&lt;span style=&quot;font-size: 12px ; font-weight: 400&quot;&gt;Colors - 5 types&lt;/span&gt;&lt;/div&gt;&lt;div&gt;&lt;span style=&quot;font-size: 12px ; font-weight: 400&quot;&gt;Fabric - 5 types&lt;/span&gt;&lt;/div&gt;&lt;div&gt;&lt;span style=&quot;font-size: 12px ; font-weight: 400&quot;&gt;Designs - 5 types&lt;/span&gt;&lt;/div&gt;" style="text;html=1;strokeColor=none;fillColor=none;spacing=5;spacingTop=-20;whiteSpace=wrap;overflow=hidden;rounded=0;" vertex="1" parent="1">
          <mxGeometry y="140" width="190" height="100" as="geometry" />
        </mxCell>
        <mxCell id="si4J1eO5tpDbfRMuDnGj-69" style="edgeStyle=orthogonalEdgeStyle;rounded=0;orthogonalLoop=1;jettySize=auto;html=1;exitX=0.5;exitY=1;exitDx=0;exitDy=0;entryX=0.5;entryY=0;entryDx=0;entryDy=0;" edge="1" parent="1" source="si4J1eO5tpDbfRMuDnGj-13" target="si4J1eO5tpDbfRMuDnGj-68">
          <mxGeometry relative="1" as="geometry" />
        </mxCell>
        <mxCell id="si4J1eO5tpDbfRMuDnGj-13" value="Pattern Maker" style="shape=hexagon;perimeter=hexagonPerimeter2;whiteSpace=wrap;html=1;fixedSize=1;" vertex="1" parent="1">
          <mxGeometry x="350" y="70" width="100" height="50" as="geometry" />
        </mxCell>
        <mxCell id="si4J1eO5tpDbfRMuDnGj-74" style="edgeStyle=orthogonalEdgeStyle;rounded=0;orthogonalLoop=1;jettySize=auto;html=1;exitX=0.5;exitY=1;exitDx=0;exitDy=0;entryX=0.5;entryY=0;entryDx=0;entryDy=0;" edge="1" parent="1" source="si4J1eO5tpDbfRMuDnGj-14" target="si4J1eO5tpDbfRMuDnGj-73">
          <mxGeometry relative="1" as="geometry" />
        </mxCell>
        <mxCell id="si4J1eO5tpDbfRMuDnGj-14" value="Cutters" style="shape=hexagon;perimeter=hexagonPerimeter2;whiteSpace=wrap;html=1;fixedSize=1;" vertex="1" parent="1">
          <mxGeometry x="560" y="70" width="90" height="50" as="geometry" />
        </mxCell>
        <mxCell id="si4J1eO5tpDbfRMuDnGj-78" style="edgeStyle=orthogonalEdgeStyle;rounded=0;orthogonalLoop=1;jettySize=auto;html=1;exitX=0.5;exitY=1;exitDx=0;exitDy=0;entryX=0.49;entryY=-0.013;entryDx=0;entryDy=0;entryPerimeter=0;" edge="1" parent="1" source="si4J1eO5tpDbfRMuDnGj-15" target="si4J1eO5tpDbfRMuDnGj-77">
          <mxGeometry relative="1" as="geometry" />
        </mxCell>
        <mxCell id="si4J1eO5tpDbfRMuDnGj-15" value="Sewers" style="shape=hexagon;perimeter=hexagonPerimeter2;whiteSpace=wrap;html=1;fixedSize=1;" vertex="1" parent="1">
          <mxGeometry x="660" y="70" width="90" height="50" as="geometry" />
        </mxCell>
        <mxCell id="si4J1eO5tpDbfRMuDnGj-72" style="edgeStyle=orthogonalEdgeStyle;rounded=0;orthogonalLoop=1;jettySize=auto;html=1;exitX=0.625;exitY=1;exitDx=0;exitDy=0;entryX=0.25;entryY=0;entryDx=0;entryDy=0;" edge="1" parent="1" source="si4J1eO5tpDbfRMuDnGj-16" target="si4J1eO5tpDbfRMuDnGj-71">
          <mxGeometry relative="1" as="geometry" />
        </mxCell>
        <mxCell id="si4J1eO5tpDbfRMuDnGj-16" value="Marker Maker" style="shape=hexagon;perimeter=hexagonPerimeter2;whiteSpace=wrap;html=1;fixedSize=1;" vertex="1" parent="1">
          <mxGeometry x="455" y="70" width="100" height="50" as="geometry" />
        </mxCell>
        <mxCell id="si4J1eO5tpDbfRMuDnGj-83" style="edgeStyle=orthogonalEdgeStyle;rounded=0;orthogonalLoop=1;jettySize=auto;html=1;exitX=1;exitY=0.5;exitDx=0;exitDy=0;entryX=0.5;entryY=0;entryDx=0;entryDy=0;" edge="1" parent="1" source="si4J1eO5tpDbfRMuDnGj-17" target="si4J1eO5tpDbfRMuDnGj-82">
          <mxGeometry relative="1" as="geometry" />
        </mxCell>
        <mxCell id="si4J1eO5tpDbfRMuDnGj-17" value="UPS Shipping" style="shape=hexagon;perimeter=hexagonPerimeter2;whiteSpace=wrap;html=1;fixedSize=1;" vertex="1" parent="1">
          <mxGeometry x="760" y="70" width="90" height="50" as="geometry" />
        </mxCell>
        <mxCell id="si4J1eO5tpDbfRMuDnGj-39" style="edgeStyle=orthogonalEdgeStyle;rounded=0;orthogonalLoop=1;jettySize=auto;html=1;exitX=1;exitY=0.5;exitDx=0;exitDy=0;entryX=0;entryY=0.5;entryDx=0;entryDy=0;" edge="1" parent="1" source="si4J1eO5tpDbfRMuDnGj-18" target="si4J1eO5tpDbfRMuDnGj-34">
          <mxGeometry relative="1" as="geometry" />
        </mxCell>
        <mxCell id="si4J1eO5tpDbfRMuDnGj-18" value="Inside Sales&lt;br&gt;(follows up John&#39;s leads and converts)" style="whiteSpace=wrap;html=1;aspect=fixed;" vertex="1" parent="1">
          <mxGeometry x="320" y="357" width="80" height="80" as="geometry" />
        </mxCell>
        <mxCell id="si4J1eO5tpDbfRMuDnGj-19" value="Customer" style="ellipse;whiteSpace=wrap;html=1;aspect=fixed;" vertex="1" parent="1">
          <mxGeometry x="320" y="507" width="80" height="80" as="geometry" />
        </mxCell>
        <mxCell id="si4J1eO5tpDbfRMuDnGj-20" value="" style="endArrow=classic;html=1;exitX=0.5;exitY=0;exitDx=0;exitDy=0;entryX=0.5;entryY=1;entryDx=0;entryDy=0;" edge="1" parent="1" source="si4J1eO5tpDbfRMuDnGj-19" target="si4J1eO5tpDbfRMuDnGj-18">
          <mxGeometry width="50" height="50" relative="1" as="geometry">
            <mxPoint x="310" y="487" as="sourcePoint" />
            <mxPoint x="320" y="487" as="targetPoint" />
          </mxGeometry>
        </mxCell>
        <mxCell id="si4J1eO5tpDbfRMuDnGj-21" value="Customer orders" style="text;html=1;strokeColor=none;fillColor=none;align=center;verticalAlign=middle;whiteSpace=wrap;rounded=0;" vertex="1" parent="1">
          <mxGeometry x="370" y="477" width="40" height="20" as="geometry" />
        </mxCell>
        <mxCell id="si4J1eO5tpDbfRMuDnGj-24" style="edgeStyle=orthogonalEdgeStyle;rounded=0;orthogonalLoop=1;jettySize=auto;html=1;exitX=1;exitY=0.5;exitDx=0;exitDy=0;entryX=0;entryY=0.5;entryDx=0;entryDy=0;" edge="1" parent="1" source="si4J1eO5tpDbfRMuDnGj-23" target="si4J1eO5tpDbfRMuDnGj-19">
          <mxGeometry relative="1" as="geometry" />
        </mxCell>
        <mxCell id="si4J1eO5tpDbfRMuDnGj-27" style="edgeStyle=orthogonalEdgeStyle;rounded=0;orthogonalLoop=1;jettySize=auto;html=1;exitX=1;exitY=0.25;exitDx=0;exitDy=0;entryX=0;entryY=0.5;entryDx=0;entryDy=0;" edge="1" parent="1" source="si4J1eO5tpDbfRMuDnGj-23" target="si4J1eO5tpDbfRMuDnGj-18">
          <mxGeometry relative="1" as="geometry" />
        </mxCell>
        <mxCell id="si4J1eO5tpDbfRMuDnGj-23" value="Outside Sales&lt;br&gt;(John visits trade shows)" style="whiteSpace=wrap;html=1;aspect=fixed;" vertex="1" parent="1">
          <mxGeometry x="140" y="390" width="80" height="80" as="geometry" />
        </mxCell>
        <mxCell id="si4J1eO5tpDbfRMuDnGj-25" value="Introduces PHF, gives them catalogue" style="text;html=1;strokeColor=none;fillColor=none;align=center;verticalAlign=middle;whiteSpace=wrap;rounded=0;" vertex="1" parent="1">
          <mxGeometry x="230" y="470" width="90" height="20" as="geometry" />
        </mxCell>
        <mxCell id="si4J1eO5tpDbfRMuDnGj-28" value="John gives trade show leads. Churches/Schools" style="text;html=1;strokeColor=none;fillColor=none;align=center;verticalAlign=middle;whiteSpace=wrap;rounded=0;" vertex="1" parent="1">
          <mxGeometry x="110" y="360" width="160" height="20" as="geometry" />
        </mxCell>
        <mxCell id="si4J1eO5tpDbfRMuDnGj-29" value="&lt;font style=&quot;font-size: 10px&quot;&gt;Kay,&lt;br&gt;Debbie&lt;/font&gt;" style="shape=umlActor;verticalLabelPosition=bottom;verticalAlign=top;html=1;outlineConnect=0;" vertex="1" parent="1">
          <mxGeometry x="411" y="376" width="10" height="20" as="geometry" />
        </mxCell>
        <mxCell id="si4J1eO5tpDbfRMuDnGj-30" value="&lt;font style=&quot;font-size: 10px&quot;&gt;Austin&lt;/font&gt;" style="shape=umlActor;verticalLabelPosition=bottom;verticalAlign=top;html=1;outlineConnect=0;" vertex="1" parent="1">
          <mxGeometry x="229" y="258" width="10" height="21" as="geometry" />
        </mxCell>
        <mxCell id="si4J1eO5tpDbfRMuDnGj-31" value="&lt;font style=&quot;font-size: 10px&quot;&gt;John&lt;/font&gt;" style="shape=umlActor;verticalLabelPosition=bottom;verticalAlign=top;html=1;outlineConnect=0;" vertex="1" parent="1">
          <mxGeometry x="120" y="400" width="10" height="21" as="geometry" />
        </mxCell>
        <mxCell id="si4J1eO5tpDbfRMuDnGj-60" style="edgeStyle=orthogonalEdgeStyle;rounded=0;orthogonalLoop=1;jettySize=auto;html=1;exitX=0.75;exitY=0;exitDx=0;exitDy=0;entryX=0.5;entryY=1;entryDx=0;entryDy=0;" edge="1" parent="1" source="si4J1eO5tpDbfRMuDnGj-32" target="si4J1eO5tpDbfRMuDnGj-59">
          <mxGeometry relative="1" as="geometry" />
        </mxCell>
        <mxCell id="si4J1eO5tpDbfRMuDnGj-32" value="Office Manager" style="whiteSpace=wrap;html=1;aspect=fixed;" vertex="1" parent="1">
          <mxGeometry x="580" y="357" width="80" height="80" as="geometry" />
        </mxCell>
        <mxCell id="si4J1eO5tpDbfRMuDnGj-36" style="edgeStyle=orthogonalEdgeStyle;rounded=0;orthogonalLoop=1;jettySize=auto;html=1;exitX=0.5;exitY=1;exitDx=0;exitDy=0;entryX=0;entryY=0.75;entryDx=0;entryDy=0;" edge="1" parent="1" source="si4J1eO5tpDbfRMuDnGj-34" target="si4J1eO5tpDbfRMuDnGj-35">
          <mxGeometry relative="1" as="geometry">
            <Array as="points">
              <mxPoint x="490" y="561" />
            </Array>
          </mxGeometry>
        </mxCell>
        <mxCell id="si4J1eO5tpDbfRMuDnGj-45" style="edgeStyle=orthogonalEdgeStyle;rounded=0;orthogonalLoop=1;jettySize=auto;html=1;exitX=0.5;exitY=0;exitDx=0;exitDy=0;entryX=0.5;entryY=0;entryDx=0;entryDy=0;" edge="1" parent="1" source="si4J1eO5tpDbfRMuDnGj-34" target="si4J1eO5tpDbfRMuDnGj-32">
          <mxGeometry relative="1" as="geometry" />
        </mxCell>
        <mxCell id="si4J1eO5tpDbfRMuDnGj-48" style="edgeStyle=orthogonalEdgeStyle;rounded=0;orthogonalLoop=1;jettySize=auto;html=1;exitX=1;exitY=0.5;exitDx=0;exitDy=0;entryX=0.25;entryY=0;entryDx=0;entryDy=0;" edge="1" parent="1" source="si4J1eO5tpDbfRMuDnGj-34" target="si4J1eO5tpDbfRMuDnGj-47">
          <mxGeometry relative="1" as="geometry">
            <Array as="points">
              <mxPoint x="535" y="397" />
            </Array>
          </mxGeometry>
        </mxCell>
        <mxCell id="si4J1eO5tpDbfRMuDnGj-34" value="Is the order custom?" style="rhombus;whiteSpace=wrap;html=1;" vertex="1" parent="1">
          <mxGeometry x="450" y="357" width="80" height="80" as="geometry" />
        </mxCell>
        <mxCell id="si4J1eO5tpDbfRMuDnGj-41" style="edgeStyle=orthogonalEdgeStyle;rounded=0;orthogonalLoop=1;jettySize=auto;html=1;exitX=1;exitY=0.5;exitDx=0;exitDy=0;entryX=0.5;entryY=1;entryDx=0;entryDy=0;" edge="1" parent="1" source="si4J1eO5tpDbfRMuDnGj-35" target="si4J1eO5tpDbfRMuDnGj-32">
          <mxGeometry relative="1" as="geometry" />
        </mxCell>
        <mxCell id="si4J1eO5tpDbfRMuDnGj-35" value="Design&lt;br&gt;" style="shape=step;perimeter=stepPerimeter;whiteSpace=wrap;html=1;fixedSize=1;" vertex="1" parent="1">
          <mxGeometry x="510" y="542" width="80" height="29" as="geometry" />
        </mxCell>
        <mxCell id="si4J1eO5tpDbfRMuDnGj-38" value="&lt;font style=&quot;font-size: 10px&quot;&gt;Rhonda,&lt;br&gt;Debbie&lt;/font&gt;" style="shape=umlActor;verticalLabelPosition=bottom;verticalAlign=top;html=1;outlineConnect=0;" vertex="1" parent="1">
          <mxGeometry x="540" y="581" width="10" height="20" as="geometry" />
        </mxCell>
        <mxCell id="si4J1eO5tpDbfRMuDnGj-42" value="Yes" style="text;html=1;strokeColor=none;fillColor=none;align=center;verticalAlign=middle;whiteSpace=wrap;rounded=0;" vertex="1" parent="1">
          <mxGeometry x="440" y="447" width="40" height="20" as="geometry" />
        </mxCell>
        <mxCell id="si4J1eO5tpDbfRMuDnGj-44" value="Partial" style="text;html=1;strokeColor=none;fillColor=none;align=center;verticalAlign=middle;whiteSpace=wrap;rounded=0;" vertex="1" parent="1">
          <mxGeometry x="540" y="447" width="40" height="20" as="geometry" />
        </mxCell>
        <mxCell id="si4J1eO5tpDbfRMuDnGj-46" value="No" style="text;html=1;strokeColor=none;fillColor=none;align=center;verticalAlign=middle;whiteSpace=wrap;rounded=0;" vertex="1" parent="1">
          <mxGeometry x="525" y="317" width="40" height="20" as="geometry" />
        </mxCell>
        <mxCell id="si4J1eO5tpDbfRMuDnGj-49" style="edgeStyle=orthogonalEdgeStyle;rounded=0;orthogonalLoop=1;jettySize=auto;html=1;exitX=1;exitY=0.5;exitDx=0;exitDy=0;entryX=0.5;entryY=1;entryDx=0;entryDy=0;" edge="1" parent="1" source="si4J1eO5tpDbfRMuDnGj-47" target="si4J1eO5tpDbfRMuDnGj-32">
          <mxGeometry relative="1" as="geometry">
            <Array as="points">
              <mxPoint x="620" y="492" />
            </Array>
          </mxGeometry>
        </mxCell>
        <mxCell id="si4J1eO5tpDbfRMuDnGj-47" value="Fabric, color, design choice" style="shape=step;perimeter=stepPerimeter;whiteSpace=wrap;html=1;fixedSize=1;" vertex="1" parent="1">
          <mxGeometry x="510" y="477" width="100" height="30" as="geometry" />
        </mxCell>
        <mxCell id="si4J1eO5tpDbfRMuDnGj-80" style="edgeStyle=orthogonalEdgeStyle;rounded=0;orthogonalLoop=1;jettySize=auto;html=1;exitX=0;exitY=0;exitDx=0;exitDy=0;exitPerimeter=0;entryX=0;entryY=0.75;entryDx=0;entryDy=0;" edge="1" parent="1" source="si4J1eO5tpDbfRMuDnGj-50" target="si4J1eO5tpDbfRMuDnGj-15">
          <mxGeometry relative="1" as="geometry">
            <mxPoint x="650" y="140" as="targetPoint" />
          </mxGeometry>
        </mxCell>
        <mxCell id="si4J1eO5tpDbfRMuDnGj-50" value="First Sample" style="shape=cube;whiteSpace=wrap;html=1;boundedLbl=1;backgroundOutline=1;darkOpacity=0.05;darkOpacity2=0.1;" vertex="1" parent="1">
          <mxGeometry x="700" y="377" width="100" height="60" as="geometry" />
        </mxCell>
        <mxCell id="si4J1eO5tpDbfRMuDnGj-51" value="" style="shape=flexArrow;endArrow=classic;html=1;" edge="1" parent="1">
          <mxGeometry width="50" height="50" relative="1" as="geometry">
            <mxPoint x="760" y="437" as="sourcePoint" />
            <mxPoint x="760" y="497" as="targetPoint" />
          </mxGeometry>
        </mxCell>
        <mxCell id="si4J1eO5tpDbfRMuDnGj-52" value="Sent to Customer. Paid by Customer" style="text;html=1;strokeColor=none;fillColor=none;align=center;verticalAlign=middle;whiteSpace=wrap;rounded=0;" vertex="1" parent="1">
          <mxGeometry x="766" y="447" width="100" height="20" as="geometry" />
        </mxCell>
        <mxCell id="si4J1eO5tpDbfRMuDnGj-53" value="" style="endArrow=classic;html=1;entryX=0;entryY=0;entryDx=40;entryDy=0;entryPerimeter=0;" edge="1" parent="1" target="si4J1eO5tpDbfRMuDnGj-50">
          <mxGeometry width="50" height="50" relative="1" as="geometry">
            <mxPoint x="740" y="357" as="sourcePoint" />
            <mxPoint x="730" y="367" as="targetPoint" />
          </mxGeometry>
        </mxCell>
        <mxCell id="si4J1eO5tpDbfRMuDnGj-54" value="Who all were involved?" style="text;html=1;strokeColor=none;fillColor=none;align=center;verticalAlign=middle;whiteSpace=wrap;rounded=0;" vertex="1" parent="1">
          <mxGeometry x="690" y="337" width="100" height="20" as="geometry" />
        </mxCell>
        <mxCell id="si4J1eO5tpDbfRMuDnGj-56" style="edgeStyle=orthogonalEdgeStyle;rounded=0;orthogonalLoop=1;jettySize=auto;html=1;exitX=0;exitY=0;exitDx=0;exitDy=0;entryX=0.75;entryY=1;entryDx=0;entryDy=0;" edge="1" parent="1" source="si4J1eO5tpDbfRMuDnGj-55" target="si4J1eO5tpDbfRMuDnGj-32">
          <mxGeometry relative="1" as="geometry" />
        </mxCell>
        <mxCell id="si4J1eO5tpDbfRMuDnGj-55" value="Customer" style="ellipse;whiteSpace=wrap;html=1;aspect=fixed;" vertex="1" parent="1">
          <mxGeometry x="720" y="497" width="80" height="80" as="geometry" />
        </mxCell>
        <mxCell id="si4J1eO5tpDbfRMuDnGj-57" value="Feedback for Go ahead" style="text;html=1;strokeColor=none;fillColor=none;align=center;verticalAlign=middle;whiteSpace=wrap;rounded=0;" vertex="1" parent="1">
          <mxGeometry x="640" y="482" width="100" height="20" as="geometry" />
        </mxCell>
        <mxCell id="si4J1eO5tpDbfRMuDnGj-58" value="Sends sample back to customer" style="text;html=1;strokeColor=none;fillColor=none;align=center;verticalAlign=middle;whiteSpace=wrap;rounded=0;" vertex="1" parent="1">
          <mxGeometry x="620" y="517" width="100" height="20" as="geometry" />
        </mxCell>
        <mxCell id="si4J1eO5tpDbfRMuDnGj-61" style="edgeStyle=orthogonalEdgeStyle;rounded=0;orthogonalLoop=1;jettySize=auto;html=1;exitX=0.5;exitY=0;exitDx=0;exitDy=0;entryX=0.375;entryY=1;entryDx=0;entryDy=0;" edge="1" parent="1" source="si4J1eO5tpDbfRMuDnGj-59" target="si4J1eO5tpDbfRMuDnGj-16">
          <mxGeometry relative="1" as="geometry">
            <Array as="points">
              <mxPoint x="640" y="210" />
              <mxPoint x="493" y="210" />
            </Array>
          </mxGeometry>
        </mxCell>
        <mxCell id="si4J1eO5tpDbfRMuDnGj-67" style="edgeStyle=orthogonalEdgeStyle;rounded=0;orthogonalLoop=1;jettySize=auto;html=1;exitX=0;exitY=0.5;exitDx=0;exitDy=0;entryX=0.375;entryY=1;entryDx=0;entryDy=0;" edge="1" parent="1" source="si4J1eO5tpDbfRMuDnGj-59" target="si4J1eO5tpDbfRMuDnGj-13">
          <mxGeometry relative="1" as="geometry">
            <mxPoint x="390" y="150" as="targetPoint" />
          </mxGeometry>
        </mxCell>
        <mxCell id="si4J1eO5tpDbfRMuDnGj-59" value="Any Customization required?" style="rhombus;whiteSpace=wrap;html=1;" vertex="1" parent="1">
          <mxGeometry x="600" y="237" width="80" height="80" as="geometry" />
        </mxCell>
        <mxCell id="si4J1eO5tpDbfRMuDnGj-63" value="Yes" style="text;html=1;strokeColor=none;fillColor=none;align=center;verticalAlign=middle;whiteSpace=wrap;rounded=0;" vertex="1" parent="1">
          <mxGeometry x="455" y="250" width="40" height="20" as="geometry" />
        </mxCell>
        <mxCell id="si4J1eO5tpDbfRMuDnGj-64" value="No" style="text;html=1;strokeColor=none;fillColor=none;align=center;verticalAlign=middle;whiteSpace=wrap;rounded=0;" vertex="1" parent="1">
          <mxGeometry x="520" y="210" width="35" height="20" as="geometry" />
        </mxCell>
        <mxCell id="si4J1eO5tpDbfRMuDnGj-70" style="edgeStyle=orthogonalEdgeStyle;rounded=0;orthogonalLoop=1;jettySize=auto;html=1;exitX=1;exitY=0.25;exitDx=0;exitDy=0;entryX=0;entryY=0.75;entryDx=0;entryDy=0;" edge="1" parent="1" source="si4J1eO5tpDbfRMuDnGj-68" target="si4J1eO5tpDbfRMuDnGj-16">
          <mxGeometry relative="1" as="geometry">
            <Array as="points">
              <mxPoint x="463" y="170" />
              <mxPoint x="463" y="140" />
            </Array>
          </mxGeometry>
        </mxCell>
        <mxCell id="si4J1eO5tpDbfRMuDnGj-68" value="&lt;font style=&quot;font-size: 10px&quot;&gt;Pattern&lt;br&gt;Cardboard&lt;/font&gt;" style="shape=document;whiteSpace=wrap;html=1;boundedLbl=1;" vertex="1" parent="1">
          <mxGeometry x="395" y="160" width="55" height="40" as="geometry" />
        </mxCell>
        <mxCell id="si4J1eO5tpDbfRMuDnGj-75" style="edgeStyle=orthogonalEdgeStyle;rounded=0;orthogonalLoop=1;jettySize=auto;html=1;exitX=1;exitY=0.25;exitDx=0;exitDy=0;entryX=0;entryY=0.25;entryDx=0;entryDy=0;" edge="1" parent="1" source="si4J1eO5tpDbfRMuDnGj-71" target="si4J1eO5tpDbfRMuDnGj-73">
          <mxGeometry relative="1" as="geometry" />
        </mxCell>
        <mxCell id="si4J1eO5tpDbfRMuDnGj-71" value="&lt;span style=&quot;font-size: 10px&quot;&gt;Paper Markers&lt;/span&gt;" style="shape=document;whiteSpace=wrap;html=1;boundedLbl=1;" vertex="1" parent="1">
          <mxGeometry x="504" y="160" width="55" height="40" as="geometry" />
        </mxCell>
        <mxCell id="si4J1eO5tpDbfRMuDnGj-79" style="edgeStyle=orthogonalEdgeStyle;rounded=0;orthogonalLoop=1;jettySize=auto;html=1;exitX=1;exitY=0.25;exitDx=0;exitDy=0;entryX=0;entryY=0.75;entryDx=0;entryDy=0;" edge="1" parent="1" source="si4J1eO5tpDbfRMuDnGj-73" target="si4J1eO5tpDbfRMuDnGj-15">
          <mxGeometry relative="1" as="geometry" />
        </mxCell>
        <mxCell id="si4J1eO5tpDbfRMuDnGj-73" value="&lt;span style=&quot;font-size: 10px&quot;&gt;Cut Stack&lt;/span&gt;" style="shape=document;whiteSpace=wrap;html=1;boundedLbl=1;" vertex="1" parent="1">
          <mxGeometry x="577.5" y="160" width="55" height="40" as="geometry" />
        </mxCell>
        <mxCell id="si4J1eO5tpDbfRMuDnGj-81" style="edgeStyle=orthogonalEdgeStyle;rounded=0;orthogonalLoop=1;jettySize=auto;html=1;exitX=0;exitY=0;exitDx=90;exitDy=10;exitPerimeter=0;entryX=0.5;entryY=1;entryDx=0;entryDy=0;" edge="1" parent="1" source="si4J1eO5tpDbfRMuDnGj-77" target="si4J1eO5tpDbfRMuDnGj-17">
          <mxGeometry relative="1" as="geometry" />
        </mxCell>
        <mxCell id="si4J1eO5tpDbfRMuDnGj-77" value="Final Product" style="shape=cube;whiteSpace=wrap;html=1;boundedLbl=1;backgroundOutline=1;darkOpacity=0.05;darkOpacity2=0.1;" vertex="1" parent="1">
          <mxGeometry x="680" y="160" width="100" height="60" as="geometry" />
        </mxCell>
        <mxCell id="si4J1eO5tpDbfRMuDnGj-82" value="Customer" style="ellipse;whiteSpace=wrap;html=1;aspect=fixed;" vertex="1" parent="1">
          <mxGeometry x="850" y="140" width="80" height="80" as="geometry" />
        </mxCell>
      </root>
    </mxGraphModel>
  </diagram>
</mxfile>
